<svg xmlns="http://www.w3.org/2000/svg" viewBox="0 0 512 512">
  <path d="M472.2 34.6H39.8C17.8 34.6 0 52.4 0 74.4v45.3c0 3 2.5 5.7 5.7 5.7h500.6c3.2 0 5.7-2.6 5.7-5.7V74.4c0-22-17.8-39.8-39.8-39.8zM71.8 92.8C64.8 92.8 59 87 59 80c0-7 5.7-12.8 12.8-12.8S84.6 73 84.6 80c0 7-5.7 12.8-12.8 12.8zm41.2 0c-7 0-13-5.7-13-12.8 0-7 6-12.8 13-12.8S125.8 73 125.8 80c0 7-5.8 12.8-12.8 12.8zm41 0c-7 0-12.7-5.7-12.7-12.8 0-7 5.7-12.8 12.8-12.8 7.2 0 13 5.7 13 12.8 0 7-5.8 12.8-13 12.8zM506.3 148.2H5.7c-3.2 0-5.7 2.5-5.7 5.6v283.8c0 22 17.8 39.8 39.8 39.8h432.4c22 0 39.8-17.8 39.8-39.8V153.8c0-3-2.5-5.7-5.7-5.7zM162 369.5c4.4 4.5 4.4 11.7 0 16-2.2 2.3-5 3.5-8 3.5s-6-1.2-8-3.4l-65.5-65.4c-4.5-4.5-4.5-11.7 0-16l65.4-65.6c4.4-4.4 11.6-4.4 16 0 4.4 4.5 4.4 11.7 0 16l-57.4 57.5 57.4 57.5zm156.6-135.7L221 403c-2.2 3.7-6 5.8-10 5.8-2 0-4-.5-5.7-1.6-5.4-3-7.3-10-4-15.5l97.5-169.2c3.2-5.5 10-7.3 15.6-4.2 5.4 3 7.3 10 4 15.5zm113 86.4L366 385.6c-2 2.2-5 3.3-8 3.3s-5.8-1.2-8-3.4c-4.4-4.4-4.4-11.6 0-16l57.4-57.5-57.4-57.3c-4.4-4.4-4.4-11.6 0-16 4.4-4.5 11.6-4.5 16 0l65.5 65.4c2.2 2.2 3.4 5 3.4 8s-1.3 6-3.5 8.2z"/>
</svg>
