<svg xmlns="http://www.w3.org/2000/svg" width="49.7" height="49.7" viewBox="0 0 49.652 49.652">
  <path d="M24 20.5c-2.2-4-4.7-7.5-5-7.7-3.6 1.7-6.3 5.2-7.2 9.3.3 0 6 .2 12.3-1.5zM21.6 12zM33.6 14.8c-2.3-2-5.4-3.3-8.8-3.3-1 0-2 0-3 .4 0 0 2.6 3.5 5 7.7 5-2 6.8-4.8 6.8-5zM27 27c-7.8 2.7-10.3 8.3-10.4 8.3 2.3 1.8 5 2.8 8.2 2.8 2 0 3.6-.2 5.2-1-.2-1-1-5.2-2.8-10zM25.7 25l.6-.2-1-2.3c-7 2-13.5 2-13.8 2v.3c0 3.4 1.3 6.6 3.4 9 0 0 3.6-6.5 10.7-9z"/>
  <path d="M24.8 0C11 0 0 11 0 24.8c0 13.7 11 25 24.8 25 13.7 0 25-11.3 25-25S38.4 0 24.7 0zM40 28c0 1-.4 2-.8 3l-1.4 2.5c-.6 1-1.2 1.7-2 2.4-.6.6-1.4 1.2-2.3 1.8L31 39.2l-3 1-3.2.2c-1 0-2 0-3-.3-1 0-2-.4-3-.8s-2-1-2.7-1.4c-.7-.6-1.5-1.2-2.2-2-.7-.6-1.3-1.4-2-2.3-.5-.8-1-1.7-1.3-2.6l-1-3c-.2-1-.3-2-.3-3.2 0-1 0-2 .3-3l1-3c.4-1 .8-2 1.4-2.7.5-.7 1-1.5 1.8-2.2l2.3-2c1-.5 1.8-1 2.8-1.3l3-1 3-.3c1 0 2 0 3.2.4 1 .2 2 .5 3 1 .8.2 1.7.7 2.5 1.3 1 .5 1.7 1 2.4 1.8l1.8 2.3 1.4 2.8 1 3 .2 3c0 1 0 2-.3 3.2z"/>
  <path d="M29.7 26.4c1.7 4.8 2.4 8.7 2.6 9.5 3-2 5-5.3 5.7-9-.3 0-4-1.3-8.3-.6zM27.7 21.6l1 2c0 .2 0 .4.2.7 4.4-.6 9 .4 9 .4 0-3.2-1-6-3-8.3 0 0-2 3-7.3 5.2z"/>
</svg>
