<svg xmlns="http://www.w3.org/2000/svg" width="49.7" height="49.7" viewBox="0 0 49.652 49.652">
  <path d="M21.5 29l-.5-.4c-.5-.2-1-.2-1.6-.2-2.6 0-4.8 1.5-4.8 3.2 0 2 2 3.4 4.3 3.4 3 0 4.7-1 4.7-3.3V31c-.3-.7-1-1.3-2.2-2zM19.7 22.4c.6 0 1-.3 1.5-.7.6-.7 1-2 .7-3-.3-2.3-2-4-3.5-4.2-.7 0-1.2.3-1.6.7-.7.7-1 1.8-.8 3 .3 2.2 2 4 3.5 4.2z"/>
  <path d="M24.8 0C11 0 0 11 0 24.8c0 13.7 11 25 24.8 25 13.7 0 25-11.3 25-25S38.4 0 24.7 0zM22 37l-3 .3c-1.2 0-2.4 0-3.4-.4-2-.6-3.6-1.6-4.3-3-.3-.4-.5-1-.5-1.6 0-.6.2-1.2.5-2 1-2.3 4-4 7.3-4 0-.4-.3-.8-.3-1.4v-.7c-3.3 0-6-2.6-6-6 0-2.3 2-4.6 4.7-5.6.8-.2 1.6-.4 2.4-.4h7.4c.2 0 .5.2.5.4 0 .3 0 .5-.2.7l-1.5 1.2h-.8c.7 1 1.2 2.3 1.2 3.8 0 1.6-1 3-2.3 4.3-1.2 1-1.2 1-1.2 1.6 0 .3.8 1.2 1.7 2 2 1.3 2.8 2.7 2.8 5 0 2.6-2 4.8-4.8 5.6zm16.6-12.7c0 .3-.2.5-.5.5h-4V29c0 .3-.4.6-.7.6H32c-.2 0-.5-.3-.5-.6v-4.2h-4.2c-.3 0-.6-.2-.6-.5V23c0-.3.3-.5.6-.5h4.2v-4.2c0-.3.3-.6.6-.6h1.3c.3 0 .6.3.6.6v4.2h4c.4 0 .6.2.6.6v1.3z"/>
</svg>
