<svg xmlns="http://www.w3.org/2000/svg" width="49.7" height="49.7" viewBox="0 0 49.652 49.652">
  <path d="M24.8 29.8c2.8 0 5-2.2 5-5 0-1-.4-2-1-3-.8-1-2.3-2-4-2-1.6 0-3 1-4 2-.6 1-1 2-1 3 0 2.8 2.3 5 5 5zM35.7 18.7V14H31v4.8"/>
  <path d="M24.8 0C11 0 0 11 0 24.8c0 13.7 11 25 24.8 25 13.7 0 25-11.3 25-25S38.4 0 24.7 0zm14 22v11.5c0 3-2.3 5.4-5.3 5.4H16.2c-3 0-5.5-2.5-5.5-5.5V16c0-3 2.5-5.5 5.5-5.5h17.3c3 0 5.4 2.5 5.4 5.5V22z"/>
  <path d="M32.5 24.8c0 4.3-3.4 7.7-7.7 7.7-4.2 0-7.7-3.4-7.7-7.7 0-1 .3-2 .7-3h-4.2v11.7c0 1.5 1.2 2.7 2.7 2.7h17.3c1.5 0 2.7-1.2 2.7-2.7V22H32c.3.8.5 1.8.5 2.8z"/>
</svg>
