<svg xmlns="http://www.w3.org/2000/svg" viewBox="0 0 300 300">
	<path d="M150 0C67.2 0 0 67.2 0 150s67.2 150 150 150 150-67.2 150-150S232.8 0 150 0zm84.8 201.8L153.4 242c-1 .6-2.3 1-3.5 1s-2.4-.4-3.5-1L65.3 202c-4-2-5.5-6.6-3.6-10.4 2-4 6.6-5.5 10.5-3.6l77.8 38.6 77.8-38.5c4-2 8.6-.5 10.5 3.4 2 3.8.3 8.5-3.5 10.4zm0-29.6l-81.3 40.3c-1 .5-2.3.8-3.5.8s-2.4-.3-3.5-.8l-81.2-40.3c-4-2-5.5-6.6-3.6-10.4 2-4 6.6-5.5 10.5-3.6l77.8 38.6 77.8-38.6c4-2 8.6-.3 10.5 3.6 2 3.8.3 8.5-3.5 10.4zm0-29.6L153.4 183c-1 .4-2.3.7-3.5.7s-2.4-.3-3.5-.8l-81.2-40.4c-4-2-5.5-6.6-3.6-10.5 2-3.7 6.6-5.3 10.5-3.4l77.8 38.6 77.8-38.6c4-2 8.6-.3 10.5 3.5 2 4 .3 8.7-3.5 10.6zm0-31l-81.3 40.2c-1 .5-2.3.8-3.5.8s-2.4-.3-3.5-.8l-81.2-40.3c-2.7-1.3-4.4-4-4.4-7s1.6-5.6 4.3-7l81.3-40.2c2-1 4.7-1 7 0l81.2 40.3c2.6 1.3 4.3 4 4.3 7s-1.6 5.6-4.3 7z"/>
</svg>