<svg xmlns="http://www.w3.org/2000/svg" width="49.7" height="49.7" viewBox="0 0 49.652 49.652">
  <path d="M24.8 0C11 0 0 11 0 24.8c0 13.7 11 25 24.8 25 13.7 0 25-11.3 25-25S38.4 0 24.7 0zm11 19v1c0 7.4-5.6 16-16 16-3.4 0-6.4-.8-9-2.4h1.5c2.6 0 5-1 7-2.4-2.4 0-4.6-1.7-5.3-4h2.6c-2.6-.6-4.6-3-4.6-5.7.8.4 1.7.7 2.6.7-1.5-1-2.5-2.8-2.5-4.8 0-1 .3-2 .8-2.8 3 3.4 7 5.7 11.8 6V19c0-3 2.4-5.7 5.6-5.7 1.6 0 3 .7 4.2 1.8 1.3-.2 2.5-.7 3.6-1.4-.4 1.3-1.3 2.4-2.5 3 1 0 2.2-.4 3.2-.8-.7 1-1.7 2-2.8 3z"/>
</svg>
