<svg xmlns="http://www.w3.org/2000/svg" height="97" viewBox="0 0 96.98 96.98" width="97">
	<path d="M49.2 51.8L37.7 85.2c3.4 1 7 1.5 10.8 1.5 4.4 0 8.7-.8 12.7-2.2L61 84 49 51.8zM10.3 48.5c0 15 8.8 28.2 21.5 34.4L13.6 33c-2 4.7-3.3 10-3.3 15.5z"/><path d="M74.3 46.6c0-4.8-1.7-8-3.2-10.6-1.8-3-3.6-5.8-3.6-9 0-3.5 2.6-6.7 6.4-6.7h.5c-6.8-6.2-16-10-25.8-10-13.4 0-25 6.8-32 17.2H19c4 0 10.2-.4 10.2-.4 2 0 2.3 3 .3 3.2l-4.4.4L39 72l8.4-25-6-16.4-4-.4c-2 0-1.8-3.3.2-3 0 0 6.3.3 10 .3 4 0 10.3-.4 10.3-.4 2 0 2.2 3 0 3.2l-4.2.4 13.8 41L71.4 59c1.6-5.4 3-9.2 3-12.4zM82 30.2c.2 1.2.3 2.5.3 4 0 3.8-.7 8-3 13.6L67.8 81.5c11.4-6.6 19-19 19-33 0-6.7-1.7-13-4.7-18.3z"/><path d="M48.5 0C21.7 0 0 21.7 0 48.5S21.7 97 48.5 97 97 75.3 97 48.5 75.3 0 48.5 0zm0 91C25 91 6 72 6 48.5 6 25 25 6 48.5 6 72 6 91 25 91 48.5 91 72 72 91 48.5 91z"/>
</svg>